<svg xmlns="http://www.w3.org/2000/svg" xmlns:xlink="http://www.w3.org/1999/xlink" width="602" height="306" id="svg2">
  <defs id="defs518">
    <path id="sphere" d="M229.207 10.988h501.586l10.076 2.836 11.593 3.854 12.945 4.82 13.774 5.614 13.704 6.176 6.444 3.222 6.168 3.312 11.856 6.8 11.092 7.054 10.734 7.25 10.415 7.447 10.078 7.605 9.678 7.75 9.212 7.883 8.607 7.99 7.82 8.09 7.334 8.156 6.982 8.227 6.33 8.268 5.686 8.308 5.143 8.325 4.55 8.336 3.88 8.334 3.29 8.336 2.58 8.336 4.516 16.67 1.803 8.336 1.45 8.336 1.1 8.335.804 8.336.593 8.334.21 8.336-.21 8.336-.593 8.335-.803 8.337-1.102 8.335-1.45 8.336-1.8 8.335-4.516 16.67-2.58 8.337-3.29 8.336-3.88 8.335-4.55 8.337-5.144 8.325-5.687 8.307-6.33 8.267-6.98 8.227-7.334 8.157-7.82 8.09-8.608 7.99-9.21 7.88-9.68 7.752-10.077 7.605-10.415 7.446-10.734 7.25-11.092 7.054-11.856 6.8-6.168 3.313-6.444 3.222-13.704 6.176-13.774 5.615-12.945 4.82-11.594 3.853-10.077 2.836H229.207l-10.076-2.836-11.593-3.854-12.945-4.82-13.774-5.614-13.704-6.176-6.444-3.222-6.168-3.312-11.857-6.8-11.09-7.054-10.735-7.25-10.415-7.447-10.078-7.605-9.678-7.75-9.212-7.883-8.607-7.99-7.82-8.09-7.334-8.156-6.982-8.227-6.33-8.268-5.686-8.308-5.143-8.325-4.55-8.336-3.88-8.334-3.29-8.336-2.58-8.336-4.516-16.67-1.803-8.336-1.45-8.336-1.1-8.335-.804-8.336-.593-8.334L8.76 250l.21-8.336.593-8.335.803-8.337 1.102-8.335 1.45-8.336 1.8-8.335 4.516-16.67 2.58-8.337 3.29-8.336 3.88-8.335 4.55-8.337 5.144-8.325 5.687-8.307 6.33-8.267 6.98-8.227 7.334-8.157 7.82-8.09 8.608-7.99 9.21-7.88 9.68-7.752 10.077-7.605 10.415-7.446 10.734-7.25 11.091-7.054 11.857-6.8 6.168-3.313 6.444-3.222 13.704-6.176 13.774-5.615 12.945-4.82 11.594-3.853 10.077-2.836z"/>
  </defs>
  <use id="use7" xlink:href="#sphere" class="sphere" width="100%" height="100%" transform="matrix(.63594 0 0 .63594 -5.254 -5.378)" fill="#64beff" stroke="#000"/>
  <path id="asia" class="continent border" d="M397.154 9.832l-3.1 1.11 2.683.362 3.226-.294-2.81-1.178zm3.58 1.305l-3.666.76 2.69.69 5.302.093-1.333-1.09-2.992-.453zm6.9 1.13l-1.63.05-.026 1.63 5.644-.637-3.988-1.042zm3.983 2.106l-4.69 2.598-1.46-.356-6.375.912-1.865 1.82 1.35.538-6.353.495 1.117 1.55 4.557 1.43 1.567 1.757-.848.077-3.043-1.97-3.56-1.05-.895.772-2.498-.042 2.967 1.178-3.09-.297-.586-1.404-2.204 1.295 2.472 1.373.727 2.107 2.037-.124 3.027.6 1.252.976-2.95-1.15-2.014.48 1.372 1.617-1.94 2.362-3.95-.633 3.022-.065.708-2.975-1.737-.7-2.135-3.408-1.43-.654-.114-1.8-4.44.007.305 1.327-1.22.788.077.234 1.627 2.31 3.19 1.294-.514.872-3.13-.992-4.305 37.52-.163.45 2.884.688-.285 2.43-1.705.125-1.326 1.253 3.272 3.382 1.224.194.016 1.83.65.69.296-1.353 1.122.046 1.675 1.796-1.307.913-1.355-.653.09 1.723 1.313.194 1.053 1.963.504 2.924.35.98-3.19.448-1.33-.29-1.695-1.252-1.654-.412-.684-1.52.27-3.082.49-.46-13.27-3.413.04-.116-.134-.008.264 1.316-1.904 1.102-2.762.01-2.963-.603-.898-.924-4.076-.526-2.94 1.728-3.08-.278.065 1.506-3.69.057-.825 1.74 1.594 1-1.115 1.25 1.607.536.233 1.923 1.603-.165-.91.738 1.955-.176 1.267 1.18 1.11-.235.313-1.208 2.16.654 1.324.97 1.35-.22 1.21-1.172 1.29.42.952-.718.076 1.895.387 2.383-1.02 2.94-.69 2.834-.397.506-1.648.506-.832-.03.12 2.082 1.29 2.635 1.46 1.42 1.028-3.18.1-.128.024.39-.283 2.357.92.084 2.66 4.14 1.01 1.246.59 1.743 1.567.91 1.17 2.33.144 2.32 1.022 1.606 1.486.92 2.198 3.884 1.006.858.916 2.038-.082 1.23 1.13 4.717 1.202 1.157 1.532-.248 1.244-1.152 1.7-.167 2.11-1.18 1.097.025 1.408-1.305 2.893-.928 1.372-.728.026-1.22 1.262-.713 1.487-.646 1.644-.05.57-1.56 1.46-.184.798-1.642 1.48-.386-.354-1.39.524-1.547.704.3 1.764-3.355-1.875-2.474-2.732-.83-1.433-1.93-.306-1.223-.422-.816-2.785 3.608-3.725.27-.432-.48-.635-.696.547-.618-.195-1.746-.584-.526-.676 1.253.23 1.408-1.256-1.856-.447-2.04-1.985-1.498-.91-1.748-1.11-2.736.94.062.557-.828 1.846.386 2.62 4.15 1.756.65 2.292 1.766 1.797.395 2.337-1.324 1.165.66.733 2.022 4.266.84 2.753.242 3.095.016 4.38-.526 1.656 1.526.957 1.618.886-.074.854 1.226 2.664 1.184-1.95.503 2.05 2.158 1.6.826 1.726-.93-.13-1.466.637-.327.903 3.096-.234 1.263 2.04 7.103 1.57 2.574 1.187 3.463 1.333 2.2 1.972 5.186 1.69 1.625.89-.56.237-1.115 1.156-.582.617-1.975.755.08-.205-3.277.61-2.498-.757-3.135.225-1.244 1.178-.322.32-.892 1.688-.488-.105-.85 2.646-2.336 1.75-2.454 1.437-.63.997-1.432-.384-.95 1.9-1.848.3 1.126 1.17-1.075.405.913 2.072-1.263-.27-1.755.753 1.263.93-.234 1.62 3.086.974 1.51 1.747.646-.24 1.134 1.205.928 1.082 2.4-.3 2.883 2.065.53 2.02-1.89.013-1.2.98 1.68.452-.107.607 3.124.842 2.24.786.95.566 2.682.186 2.655-.673 3.42.772.29 1.95 2.36.695 1.29.407.808.795 4.037 1.004 1.917 3.515 2.47 1.543.172-1.495-2.854-.113-3.45-.596-1.105-1.816-1.65-.898-1.08-.945-.047-1.414-1.237.053-1.512-.814-1.84-.983.116-.276-1.686 1.094-3.887-.19-2.278 1.51-.13-.062 1.438 1.645.066 1.974 1.932.42 1.34.935-.243.007 1.06 1.38.152.817 1.07-.065 2.374 2.745-1.802.302-2.144.876.58 2.723-1.84.065-2.43.376-.503-.462-1.812-1.23-2.844-4.057-3.923-.51-1.23-1.6-1.646.364-1.884.82-.44.11-1.47 1.816-.89.858-.4 1.998.423.673 2.307.938-.432-.73-1.138 5.123-2.175-.61-1.228 1.315.68.23-.05.81-.49 2.735-.233.41-1.346 2.472-1.72.383-1.605.83-.077-.48-2.348.762-.412.755-2.74.782.08-.74-1.765.41-1.026-1.275-.945-1.072.1 1.652-1.212-2.653-2 1.887.54-2.185-1.846-2.152-3.09-1.98-.764.046-1.628 1.355-1.89 1.885-1.54-1.715-.027-1.673-.767-1.41 1.338-.86-.3-.94-1.637-1.156.026-1.247-.904-.097-.926 1.87-.142.17-1.314 1.098-.567.436-1.36 2.125.786-.74 1.822 1 .294-.386 1.207 1.296-1.283 2.384-1.287 2.396 1.476-.09 2.24 3.34.54 1.176 1.687-.743.264 1.484 1.732-.24 1.37 1.2 1.574 1.68-1.384 1.477-.02-.007-1.947-1.406-2.253-2.728-2.518-1.918-1.015-.452-1.09 2.27-2.032-.852-1.333.79-1.39.576-1.636 2.704.904 2.04-1.524.05-1.66 1.024-3.376-.307-2.87.44-1.214-1.486-2.94-1.017-.884-.67-2.53-1.864-2.173-4.125-2.06-1.507-.032-2.076.908-.95-1.4-2.795-.54 1.31-2.166.08-1.517 1.03-1.52-.374-.94 1.314-1.688 3.622-.11 4.318.32-.1-.91 4.63.92 3.956.088-2.65-1.2.5-3.275 3.425-.277 2.54 2.336.72-1.878 1.15.27-1.817-1.706 1.402-.255 2.06 2.252-1.01 3.795.307 1.263-.917 1.066.027 1.823 2.03 2.616 4.96 4.2 4.316 3.698.398-1.19-1.068-2.443.757-.642-1.07-1.646 1.67-1.205-1.947-1.346-.485-.923 1.583-.09-1.925-1.026-1.114-1.66-2.56-.66-.388-1.604-1.398-1.8 1.915-.064 4.437-.83 2.812 1.034-.765-.805.97-.72.612-1.69 2.39-1.228 2.67.345.083-.575-2.954-1.19-2.615-1.577-4.182-.945 3.38.438 1.283-.678-9.585-6.353-7.55-1.39-6.516-.407 3.042 1.68-1.04.442-4.544-1.585-.398.432-5.842-.277-.45.906-3.29-1.246-1.796-1.22-2.886-.585-6.445.258-5.6-1.27-.285-.683-10.716-.952-1.734.42 2.718 1.57-1.804.38-3.276-.63-2.34.305-2.186-.687.662 1.75-3.305-.923-3.87-1.66.66-.91-2.54-.666-4.766-.5-.035 1.473-5.616-.578-.705-.57-5.523.116-3.265-.26-4.37.738 4.322-2.683-1.503-1.665-3.673-.85-3.464.015-4.634-.56-1.422-.832zm43.834 2.18l.89.803-3.177-.682-1.407.53 1.42.855 3.44.656 4.32-.384.54-.82-6.025-.96zm7.583.994l3.24.998 2.242-.473-5.482-.525zm-1.296 2.392l-1.2.57 3.744.465-2.543-1.036zM90.417 23.42l-1.57.05-1.287.75-.16.094 3.658-.38-.64-.514zm-8.17 4.053l-1.053.675 1.01-.646-9.54 6.324 3.642-1.615-.728.883 3.038.178-.85 1.046 1.7.884 4.136-2.062 2.266-.222 1.692-.855-.09-1.322-3.235-.205-1.8-2.96-.187-.103zm-9.582 6.353l-.005.002.005-.003zM499.477 52.44l.89 1.045-.928.585 2.406 2.923 1.842 1.218 2.69 4.192 1.586 1.48 1.274 2.508 1.313 1.29-.412-1.343 1.51.18-3.232-2.733-.86-2.516 1.686.263-5.487-4.765-1.045-1.496-3.233-2.83zm11.536 16.064l1.65 4.295-1.374.887 1.972 2.35.273-.788-1.14-.812 1.743-.665 3.09 1.275-.25-1.357 1.803-1.19-1.005-.84-2.48-.668-4.282-2.488zm3.927 7.623l.296.897-1.6.528 1.465 2.03.424 2.505-.874 1.85-1.657.586-.15-1.24-.46 3.764-4.318-.14-1.995 3.116 4.306-.953.453-.543 1.778.342.02 1.266 1.65.55.435-2.16 2.16.053 1.916-1.134.592.765.673-1.568-.938-1.016-.312-2.053-.91-1.866.273-2.192-3.228-3.388zm-160.96 10.7l-2.81.87-.032-.005-.05-.007h-.03l-.06.016-.025.013.384.977.404.035 1.005-.637.124-.007.177.035.182-.186-.017-.014.748-1.09zm156.825 2.41l-.692.75-1.04-.333-.336 1.272 1.385 1.295.112-1.07 1.532.185.408-1.104-1.37-.992zm-4.6.876l-1.713 1.292.822.973.265-.93 1.087 1.016-.36 1.046.676 1.595.863.458.823-.696-.067-2.92-.984-1.236-1.416-.597zm-9.554 16.332l-.854.325-.91 2.4.026 1.176 1.73 2.346.45-2.335.017-3.125-.46-.787zm-15.973 9.545l-1.534.268-1.55 1.386.348 1.45 1.52.63 1.263-.962.614-1.894-.66-.878zm17.248 2.986l-.48.054-.136 1.85.4 2.897-.9-.66.87 2.944 1.543.57-.394 1.3 1.36.29.41-.587 1.77 1.394-.43-1.38 1.5 1.788 1.275.005-1.058-1.162.707-.193-2.63-1.16-.284.827-.896-.544-.87-2.095.154-1.176.963-.728.256-1.454-1.293-2.25-1.838-.53zm1.55 9.49l-1.025.016 1.758 2.454.31-1.65-1.043-.82zm6.725 1.815l-1.054.056 1.908 2.714.492-.332-.316-1.846-1.03-.59zm-4.153 1.51l-.322 2.5 1.01-.5.817-1.447-1.505-.554zm3.607.592l.807 2.438.725-.193-.624-2.122-.906-.123zm-8.114.2l-.25 1.567-.698.59-2.41 3.5 2.014-1.842.328-1.08 1.505-1.19-.49-1.545zm7.454.496l-.852 2.955.95-1.542-.098-1.412zm-1.187.188l-.487 1.618-.753.53 1.184 1.508.592-3.37-.535-.286zm1.942 1.555l-.837.658.836.368v-1.025zm2.233 1.018l-.1 1.1-1.223.147-1.387 1.498-.255-.855-1.11.165-1.236.96-.455 1.94.862-1.35 1.12.396.84-.61 1.1 3.055 1.963 1.154.467-1.085-.6-1.165.62-1.097.792 1.98.55-1.84-.377-1.794-1.072-2.378-.5-.224zm-74.806.055l-.85 1.21.103 4.014.592 1.442.68.22 1.772-1.014.26-1.628-.96-2.175-1.597-2.07zm60.475 4.81l-1.385 2.762-1.105 1.227-.184.165-.087-.13-1.603.544-1.528 2.71-2.577.907-.67 2.12-1.8-.26-.485-.736-.894.984-.383 1.372.75 1.547-.054 1.627 1.075.47.487 3.577 2.605.11-.05.91 1.33-.228.728-.944.956 1.005 1.42.06.172 1.285 2.278-1.057 1.144-2.607-.353-.863 1.797-2.335.612-2.517 1.978-.284-1.925-1.738.363-.708-1.146-2.207.14-1.365 1.765-.535-.89-.826 1.845-.6-1.48-1.12-1.067-.21-.103-.907-1.676-1.2zm-35.17 2.677l-.065 1.464 3.752 3.693.114.856 1.476.894 1.04 3.13.783.33 1.143 1.723 1.28 3.333 1.92 2.645 2.208 1.808 1.335 1.676 1.31-.708.75.683.696-4.844-.7-1.608-1.224-.22-.802-2.36-1.71-.632.693-1.76-2.16-1.007-.587-1.153-1.808-1.704-.807.252-1.397-1.927-2.462-1.695-1.438-2.205-2.28-.056-1.06-.61zm54.353 6.425l-1.043 1.813.46 2.75 1.256 1.276-.89-1.678.11-.942 1.5.45-.916-1.238.065-1.133-.927 1.325.385-2.623zm-4.956.975l-2.023 1.586-3.916-.543-.956-.44-.553 1.078-.84.074-.545 2.593-.686 1.092-.014 1.422-1.014 2.11.862.635.47 1.67-.56 1.96 1.598.29.32-4.322 1.182-.858-.366 1.47 1.173 1.03-.293 1.073 2.41-.867-1.12-1.204.234-1.186-1.602-2.155.628.236 1.893-1.853-2.18-.122-1.385 1.01-1.11-2.233.63-1.293 4.487-.073 2.076.222 1.52-2.044-.32-.358zm-46.036.294l-.514.195 1.08 1.584.385-.777-.95-1.003zm58.784 3.536l-2.445.866-.488 1.18 1.412.14.41 1.1 3.165.567-2.985.51 1.146 1.652.01 1.05 1.077-1.027 2.637 1.684 1.227.11 3.39 1.694 1.41 4.03-.21.576-.3.513 1.818-.055 1.563 1.877.35-4.16.47-8.087-1.83-.43-3.398-1.673-.97 1.112-1.376.272-1.632 2.152-1.634-.942-.712-4.028-2.104-.684zm-56.205 1.093l-.543.487 1.117.76-.574-1.247zm11.558 1.034l-.878.3 1.007 2.208 1.18.513.24-.993-.792-.195-.757-1.833zm49.22.19l1.31.6.726-.336-2.035-.263zm-18.205.085l-.22.694 1.528-.263-1.308-.43zm-27.777 1.722l-.4 1.3.97-.197-.57-1.103zm36.05.433l-2.276.145.467 1.14 1.775-.31 2.106 1.068-.373-1.398-1.7-.645zm-4.455.62l-1.48.262 1.197 1.15.855-.478-.572-.935zm-6.712 2.57l-.672 1.944 1.155-1.56-.482-.383zm19.284 1.79l-.543.94.784.31-.24-1.25zm-45.767.92l-1.478.18-1.25 1.505 1.778.328-.07.806 2.945.765.93-.388 2.597.943 3.597.632.893-.32 2.252.938-.345-.69.255-1.088-1.93-.08-.862-.484-.19-1.18-2.73-.944-.81 1.02-3.077-.346-2.506-1.596zm11.427 1.815l-1.908.058 1.136.612.772-.67zm41.1.935l-1.323.444-.77 1.537 1.342-.088.394-.397.403-.24.373-.876-.418-.38zm-40.48 1.357l1.2 1.365.53-1.22-1.73-.146zm5.833.01l-1.934.767.198 1.13 3.438-.9-.044-.604-1.657-.393zm8.3.112l-1.22.892-3.39-.643-.57 1.09 3.103.024 1.72-.515.356-.85zm-10.958.078l-.717 1.313.933-.007.366-.948-.583-.358zm17.54.202l-3.07.608-.422.62-.812.413-.722.304-1.1 1.91 1.606-.362 1.18-1.276 3.897-2.016-.558-.2zm-11.684 1.975l-1.805.402 2.375 1.392.662-.412-1.23-1.38z"/>
  <path id="south-america" class="continent border" d="M181.517 130.467l-2.78 2.202-1.478-.044-.354 1.02-.758-.63-1.162.987-.304 2.132-2.284 1.71-.695-.225.274 1.373-1.264 1.32.864 1.3-.31 4.497.656.44-1.304 2.53-.923-.13-.858 2.283-.278.592-1.758.527-.04 1.482-1.403 2.105.31 1.953.727 1.143.788-.628-.156 1.545-.635.37-1.467 1.59.377 3.452 1.94 1.347 1.745 2.692 2.546 5.79 2.636 3.888-.007 1.36 2.022 2.407 2.598 1.623 3.78 2.002.288.76 1.746 1.223 1.174 5.828-.176 5.82.423 1.544-.285 5.68-.367 1.09.71 1.826-.438.618 1.18 4.012.156 2.207-.242 2.964-.44.846-.094 2.994-.426 1.05 1.608 3.32-.453.914.22 1.86.75 1.446 1.062-.494 1.05.935.137 4.07 1.098.583-.676.87.404 2.52-1.81-.886-.95 1.47 2.867.775-.49 1.3 2.082 4.24-.39.226 2.138 1.687 1.242 2.843 1.135.946 3.505 1.02-.604-1.93 1.636-.868 1.48.17-2.03-2.473-.046-1.174 1.243-.684-.223-1.716 1.694-1.774-.626-1.802-1.225-.11-1.757-1.552.093-1.015 1.31-1.146.91.064-.393-2.514.963-1.295-.263-.872 1.367.454-.652-1.267-1.956-.157-.402-2.387 1.928.846 2.053-.534-.51-1.055.265-1.766-.818-1.03 1.434.37 3.643-.597 2.04-1.014.918-2.444-1.17-1.278-.098-1.29-2.68-2.25-.06-3.466.22 2.814 1.032.997 1.152-.016 1.43.835 2.174.12 1.644-1.09.39-1.224.992-1.203.575-3.38.7-.425.09-1.7.914.33-.43 2.124 1.056-1.92.55-1.917 1.402-1.568-.187-5.156 1.04-1.842 1.3-1.12 2.393-1.194 1.11-1.05 1.33-.38 2.942.09.095-.787 1.55-1.106-.22-.8 1.974-3.965-.126-1.69.874-1.58.27-3.458-.435-2.2-.057-2.463.47-1.402 1.11.035 1.78-3.518.802-.51 1.763-2.464.765-2.422-.005-1.408-1.248-3.793-2.785-.438-2.187-2.286-2.527-1.598-3.747-.027-1.792-.92-1.752.383-.27-1.323-2.754-1.743-3.105-.488-.627 1.85-.37-.488-.973 1.06-2.378-.274-.5-1.27-1.59.832-.606-.098.59-.363.367-1.09 3.01-3.6-.026-.94-.923-.285-1.002-2.94-.19-1.484-.767.238-.495-1.154-1.622-1.516-1.564-.54-.394.746.246-.93-4.84-.32-.508.993.163-1.13-1.455-1.387-1.743-2.33-1.384-.94-2.104.303.9-1.772-1.367-1.054-1.14.246-.575-1.867-2.35.264-1.07.964-1.774-.24-.66-.78-2.814.344-1.42-1.858-1.78-.125-2.79 1.337.788 1.974-.85 1.34-.936-1.463 1-1.685-.535-1.638 1.078-.488-.533-1.155zm35.092 23.715l-.93.248-.24 2.186 1.637.737 1.63-.704.677-2.227-2.775-.24zm-.653 95.933l-.897 1.428 2.545-.78-1.648-.648zm-.886.048l-1.498.31.318 1.283 1.18-1.593z"/>
  
  <path id="antarctica" class="continent border" d="M237.513 296.158l.712 1.585-6.762-.666 5.036-.054zm-105.36-.573l2.88.74-6.26-.544-.267-.89zm96.83-1.124l-2.133 1.702-1.293-1.09zm23.01.35l1.786.146 1.308 1.858-10.335.83.148-.945 2.66-.753-.065-2.027 3.173-.31 2.6.593zm-90.07-7.056l.008.99-2.338-1.102zm-6.493-.67l4.22 1.436-4.767-.815zm58.102-.663l1.263 1.13-2.283-.685zm-28.065-1.195l3.685.492-3.3.26-4.983-.68 3.49-.56zm29.982-4.5l3.71 2.635 1.234 2.08-2.48.27-2.737-1.2-1.333.86-1.854-.384.844-.83 2.26-.016 2.308-.797-.943-.823-2.544-.588-1.106-1.584zm-88.674 20.77l.466.162 1.426.493 1.315.45 1.29.428 1.26.41 1.235.39 1.207.372 1.18.352 1.153.332 1.126.313 1.1.294 1.07.276-13.83-4.272zm332.463 4.27H140.665l-1.07-.273-1.1-.294-1.126-.314-1.154-.332-1.18-.352-1.208-.372-1.234-.39-1.262-.41-1.288-.43-1.316-.448-1.425-.492-.467-.164 12.09.296 13.366.463-9.418-.56-1.156-.508-9.13-.898 6.808.33 6.592-.123 2.812-.917-7.474-1.61 8.386-.273-4.635-.635 1.62-.788-12.228-1.502-4.46-1.095-1.44-1.125 7.894.503 2.7.555 3.062-1.057-5.52-1.37 3.978.493-2.203-.74 9.244-1.063-.207-.91 2.44.545 7.26-.372 6.02.162 3.9-.41 5.015-.16-.098.892 3.875-.673-.557.954 5.978.173 3.126-.335 3.013.503 2.7-.283-4.523-1.08-3.15-1.368 3.677.22-.454-.553-3.644-.084-.308-.47 5.794.043 13.916.217 3.02.864 2.903-.02.963-1.04 3.684 1.163 7.348-.78 2.715-.693.133-1.13-5.08-4.14 2.144-.406-1.756-2.736.333-1.9 1.403-.59.014-1.47 1.1.2 1.724-1.804 4.49-1.345-4.983 3.376.893 1.325-1.404.21-1.965 1.836 1.59 2.028 1.772-.092 2.45 1.502 1.284 1.622 2.09 1.227-1.243.893 3.93 1.635.353 1.996-1.712 1.595-5.954 1.335-.286.473-8.252-.168 3.44 1.382 3.063.048-1.564.818-7.606-.42 5.262.765-2.452.58-4.96-1.2.538.62 4.874 1.137 4.154.073 2.828 1.924 4.434-.262 7.073 1.086 5.226 2.074 2.418.098 3.563-1.268 8.145-.443 2.62.545 2.084-1.343 5.476-.735 5.507-.54 7.346-.33-8.608-.438-6.286-.99 1.757-2.12 4.786-1.35 3.012-.6 7.6-.983 1.33-1.344 1.946.138 1.442-.853-2.303.032.775-1.206 1.264.125 3.43-1.156.467-1.244 1.558-.75 2.186.863-.336-1.287 2.572-.145-.505.982 7.5-.026 2.706-.695 7.938-.923 3.116.737 1.46-1.147.99.472 5 .302 1.315.58 2.29-.16.893-.898 1.62.894.648-.634 2.96.98 4.32-1.122 3.6-.467.307-1.835 2.98.697-.164.7 3.076-.085.834.798 2.123-2.153 10.114-2.28 1.39.44 1.192-1.398 1.94.566-.28-1.26 4.644-.896 2.214.298 3.6 2.567 1.53-.333 3.643.166 5.444.632 1.592-.252.035 1.215-1.382 1.327-3.91 1.54 1.928.635-3.244 1.83-1.542 1.534 3.53-.72 5.87-3.45 7.383-1.684 2.632-1.57 8.364-1.73 4.076-.496 2.922.082 2.37-.525 1.895.406 6.335-.486-.246.75 4.43-1.576 3.17.058 4.342 1.055.275.5 2.542-.445 1.502-.986 3.285-.474 1.632 1.67-3.656 1.077 6.447-.656.04.603 10.53-1.81.078.88 2.347.533 3.875-1.672 3.897-.07-.326.653 3.025-.423 4.235.88 3.716.1.944.44-2.573 1.32 2.75-.677.13 1.45 7.56.55 1.025-.78 1.055 1.484 3.437.477-.61 2.226 1.56-.947 5.51.744.58 1.558-4 1.893-8.033 1.328-6.477 2.156-3.504 2.317-1.15 2.15-7.063.637-3.517 1.05 1.58.168-4.666 1.538 3.607 2.04-1.02.43 8.315.99-13.83 4.273z"/>
  <path id="australia" class="continent border" d="M534.287 158.83l-.47 8.088-.35 4.16 2.735.42 1.313-.69-.597-1.18 1.68-.685-.267-.733 3.767.95 1.368 2.584 1.39 1.33 4.407.735-1.137-.932.263-.654-1.328-.43-.044-.964-.976.11-.565-1.84-1.44-1.117-.24-1.36 1.46-.092-.572-1.373-2.79-1.015.206-1.057-2.036-1.964-4.003-1.426-1.774-.865zm16.73.206l1.994 1.618.86 2.407.473-1.09-1.693-1.924-1.632-1.01zm.684 2.76l.178 1.21-1.856 1.39-3.646-.212-.113.622 1.994.987 1.39-.048 2.82-1.54.384-2.383-1.15-.026zm5.267 2.46l-.153.875 1.462 1.742.384-.668-1.693-1.947zm5.967 3.96l.347.73 1.59.662-1.936-1.393zm3.518 1.454l-.044 1.494.776.672-.732-2.166zm-1.64 2.022l-.247.68 1.308.27-1.06-.95zm2.143 1.46l.627.992.6-.524-1.227-.467zm-31.2.94l-.67.42-1.34 3.004-1.305 6.657-1.467 2.615-1.46.48-1.297-1.487-1.326-.41-.57-.84-1.603-.632-1.817-2.265 1.02-.974.308-1.77 1.233-.457.623-1.25-.692-.766-2.355.598-1.968-1.026-.492.27-1.79-1.387.33 1.91-2.782.066-1.62 1.447-1.647 2.764.273 1.006-2.3-.46-1.16-1.495-.956-.21-.35.824-2.126.517-.93 1.57-.938.348-.216 1.518-1.398-.12.238 1.78-.602.58-.683-1.767-1.503 1.28-.037 1.675-.92.568-1.83 2.225-4.857 1.372-1.4.687-.81-.334-2.553 1.815-1.43.62-.994 1.277-.045-1.246-.84 1.35-.164 1.76-.738 1.01.08 2.026.57 1.35-.525 1.14-.777-1.353.237 1.64-.736-.38.716 1.728-.148 1.49.57 2.585-.423 1.383.245 2.7-1.11 3.086-1.232.44-.393 1.586 1.877 1.293 2.846-.267 3.28-1.85 2.488-.2 3.05.225 1.543-1.538 3.92-1.673 1.718.075 3.117-1.097 3.626-.4 1.27 1.045 2.194.13 1.014 3.37-.19 1.86 5.002-3.557-.178 1.01-1.3 1.198-.547 1.914 1.56-1.98.187 1.153-1.357 1.75 1.35-.232.346 2.017-.713 1.05.27 1.316 1.477.972 1.182-.06 1.246.92 3.234-1.8-.055 1.185.972 1.136.41-.648 3.9-1.814 2.947-.614 1.9-3.008 1.65-1.343 1.075-1.597 2.78-2.76 1.49-.795 4.546-6.73.6-3.43.69-2.09-1.278-3.602-1.274-1.15.355-1.343-1.675-.43-.197-2.598-.65-1.953-1.332-.423-1.897-1.796.282-2.338-.79-2.24.413-2.824-1.19-1.474-.99.662-.455-1.433.15-2.14-.516-.535-.49-3.052zm-20.04 1.072l.64 1.223 1.01-.85-1.65-.373zm80.096 9.174l-2.547.877.05.722 2.305-1.445.185-.117.01-.037zm-3.368 2.264l-1.584.543-.305.876 2.184-.032-.295-1.386zm-24.645 5.142l.96 2.385 2.644 1.968.27-.317-1.812-1.805-.417-.948-1.643-1.283zm4.128 26.977l-.712.13.098 3.362.587-.098-1.102 2.907-1.775 2.017-1.94 1.038 1.04 1.67-2.36 1.88.643.592 4.313-2.672 1.092-1.368 1.94-.656 2.86-2.587-.667-.328-1.8.85-1.402-.683-.845-1.517 1.047-2.31-1.015-2.224zm-56.756 2.203l-1.797.35 1.086.59.71-.94zm49.077 9.238l-1.736.71-3.903 3.177-3.523 1.81-2.916 1.027-5.31 3.127-.225.762 1.433-.058.427.762 1.83-.044 2.624-1.236 3.48-3.014 2.432-1.005 5.793-3.736 1.074-1.343-2.253.564.773-1.5zm-43.265.41l-1.477 3.5-.047 1.762 1.138.162 1.67-1.328.534.553.743-1.26 2.556-2.876-.216-.496-2.887.802-2.016-.82z"/>
  <path id="north-america" class="continent border" d="M268.558 7.136l-14.516.772 2.442.538-1.876.702-5.37-.817-.004.818-3.423-.664-7.603.715-7.598 1.675 1.938.306-1.873 1.32-7.693.79-.795.502 3.072.97-2.068.917 2.51.16-1.184.858 5.777-.423 4.888.922-.312.96 1.625 1.032-.333 1.94.794.362-2.47 1.758 2.162-.054 2.77.88-.78 1.11-3.376-.44 3.757 1.173-1.25 2.223-1.81.06-2.71 2.333 1.958.245-1.973.694-.09 1.335 1.187.67-.83 1.698.69 1.797 1.89 3.298 2.072.75.79-.445 1.877 1.752 1.852-.073 2.44-4.698.875-.01 2.065-1.484.05-2.29 4.072-1.18 2.622-.197 3.034-1.334 2.988-2.1 2.46-.12 4.752-.913 5.193-2.25-3.392-.468-2.517.66-.98-.595.578-.793 2.884-.476 1.51.167.867.996 2.255-.163-.022-1.465-2.94-1.43-1.534-1.238 2.61-.536 1.792.523 2.094-.298-1.07-1.48 2.887-1.158-.23-1.483-1.943.003 4.01-1.344-2.58-1.058 2.544-1.607-.16-1.46 3.83-.18 4.71-1.268-4.34-.43-1.845.516-3.745-.152.067-.653-8.426-.062 7.472-.226 1.192-.32zm-37.057.53l-12.103.354-1.674.455-10.31.855 3.252 1.19.578 2.18-2.678.198-1.98.93 2.013.84-3.255-.39.558.743-3.465.576.012.63 3.88.135 8.665-.492-.643-.88 5.77-1.5-1.126-1.21 4.704-.363 10.88-2.303-5.7.27 9.927-1.2-2.62-.792zm-25.4 2.033l-2.51.3-3.702 1.454 2.016 2.258 2.64.066 6.546-1.537-1.9-.375zm-14.527 2.48l-2.337 1.49 4.644.48.655-.966zm-8.208.793l-3.67.473 3.835.135zm14.17.07l-2.072.904 2.785.095zm-14.647.86l-4.22.232.09.804zm-8.18.832l-3.788.256-6.193 1.918 2.684.106 6.018-1.194zm21.773.64l-1.63.868 2.91.04-1.183 2.3 1.978.362 9.1.11 3.222-.618.48-.863-4.052-.514-5.464.508-1.73-1.742zm-14.933.266l-2.846.744.177 1.157-2.564-.042-.53-1.076-2.412-.26-4.627 1.8 2.42.337 4.993-.41-4.93.832 1.082.427 5.902-1 3.123.022 1.73-.872-2.763-.546zm10.914.223l-4.074.295-2.538 1.375 3.383-.228-1.613.93 2.588-.018 1.776-.946zm2.71 1.517l-2.95.592 2.39.794zm-32.22 1.532l-3.98.307-.013.87-5.77 2.75 1.56 1.33 3.632-.627 1.784-1.15 7.914-1.876-.67-.91zm31.803.7l-2.948.112-2.252 1.817-.595 1.275 5.056-1.344 3.376-1.586zm-8.325.28l-2.676.608.993.796-3.424.46 2.454 2.127 3.353-.875 1.26-1.39-1.564-.443 2.474-1.23zm15.033.063l-3.66.906-3.03 2.03-.25 2.244 2.443.55 4.588.454.804-.47 3.572.172 2.788 1.15 2.182 1.68-.32 1.8-3.6 1.58.565 1.13-2.394.34-2.585-.34-1.788 1.687 4.177.108 1.143-.58.918 1.452 1.505.487-.924.652 3.244 1.568 2.628.664.737-.577-2.594-2.6 2.655 1.233 2.23.162.876-1.787-1.86-2.772 1.324-1.47 1.33.917.278 1.463 2.955-.94 2.46-1.66-1.783-.2-.84-1.324-5.076-1.946 3.333-.563-1.926-.645 1.898-.218-2.674-.647 2.017-.695-3.744-1.644-1.46.462-.774-1.763-2.48-.392-4.024.876.95-.848-.26-1.475-3.985.482-3.3 2.07.197-1.196 3.122-1.284zm6.962.144l-.678 1.372 4.15.046-1.08-1.284zm-29.996.072l.1 1.29 1.548-.694zm-.962.593l-4.694 1.228-3.71-1.216-4.336.59-4.248 1.968 3.023.385-3.302.548.23.646 4.983-.117 1.636.642-3.064-.073-4.432.512.637 1.09 2.582.167-.537.962 2.814.068 6.495-1.02 3.12.633 2.173-.343.832-1.42 1.432.148-2.016-1.24 1.265-3.37zm12.242 1.995l-3.22 1.08-1.72 2.233 1.71.654-.22 1.415-4.986 1.752 1.775-1.323-3.343-.113 1.16.945-6.435.09-2.227-.5-.904-1.397-2.86.456-2.112 3.272-.202-1.827-5.91.04-1.677-.383 2.723-.747-.62-.76-3.394-.237-2.836-1.178-1.702-.113-2.597.743 1.214-1.08-2.943 1.01.066-1.324-9.07 1.89-.5-1.058-3.402 1.297-4.756-1.182-1.812-.734-1.818.21-4.688-.846-3.122.116-3.782-1.33-2.532.726-5.785.804-6.123 2.2-2.414.086-1.565.825 1.252 1.19-.586.835 2.184.078-2.575 1.596-1.87-.006-.233-.78-6.362 1.58.145 1.665 3.502.287 3.612-.878-2.047 1.99-4.805 1.203-.53-.39-6.226 2.823.39 1.312-1.573.468.85 1.294 1.853-.34-1.162 2.32 2.18-.714 2.048.794 1.97-.474-3.252 2.18-7.065 2.898-1.926.193-3.525 1.348 1.42.14 4.804-1.44 1.73-.18 1.293-.852 3.598-.96 1.84-1.042 3.722-1.118L94.11 44.4l-.118-.933 2.09-.57 4.438-2.207-2.73 2.075-.14 1.003 3.858-1.368 1.194.066 1.614-1.408 2.18-.394 2.276 1.737 1.695-.197 2.556.71 1.634 1.076.7 1.48 1.183-1.077 2.1 1.104.03 3.494-.328.595.874-.15.03.453-1.428 1.62 2.018-.856.904-1.104-.876 1.123-2.092 1.65.685 1.867-.107 1.96-1.244 1.776 1.248 1.327 1.328-.077L121.04 62h.49l-.395 1.845-3.47-.337-.44 2.615-3.594 5.298-1.717 1.927-.727 2.626-1.515 1.85.264 1.143-.653 1.715.86 2.134-.332 1.1.48 2.873.596.99-.26 1.295 1.32.057 1.895 1.297.686 2.257.573 3.236-.035 1.99.948.713.997 1.73-.463.956-1.472.17 1.73 2.136.79-.12 1.043 1.15-.178 2.645 2.446 2.322.44 1.255.915-1.292-1.222-1.043-1.303-4.895-.99-2.165.174-1.086-1.953-3.28.62-3.25 2.527 1.417-.335.65.536 3.434.967 1.762.902.45 1.553 2.782-.58 1.02 1.584 1.292 3.18 4.647.612 2.158-1.146 2.044.796 1.955 1.55.93.632 1.02 2.643.834 1.067 1.18 3.432 1.384 1.652 1.034 1.928.603 1.915-.594 1.06-.855 1.492.642 2.397 2.904 1.42 1.112 1.977.427 2.074.91 1.625-.303.76.8-.568.206 2.946 3.373-.382 1.367 1.16 1.505.737-.18 1.67 1.16-.224.775 1.338 1.11.423-.544 2.413.898.49 1.18 1.44-.534-.724-1.35 2.37-1.447 1.583.965-.593.81.823 1.526 1.264-1.317-.274-1.374-1.025-1.06-2.457-.748-3.02 1.587-1.537-.44-.483-1.057-1.61-2.54-.31-.846.768-1.93.008-1.67 1.015-3.22-1.498-.683-.263-.85-2.634-.362-.734.418-2.247-.266-.86.372-1.106-.318 1.37-1.998.034-1.176.502-1.49-.322-.207.375-.032.308.568.993-2.438-.473-.232 1.73-2.335.223-1.088-1.804-.315-3.055.595-1.01.535-1.03 3.06-1.277.932-5.16 1.385-1.943-1.17-1.762-3.542-.64-3.67.982-3.614 1.34-2.73-.25-1.964 2.455-2.99 1.426-.314 1.417-1.152 2.882-.747 1.366.45.82-.56.59 1.008 3.38.465-.66-1.114.583-.83-1.495-.12 2.632-.497 3.966.05 2.08 1.227 1.534-.71 1.73 2.323-.698 1.857.89 1.922.23 1.803.776 1.48.963-.148 1.264-3.033-.58-2.94-.268-4.67.603-1.3 2.016-1.774 2.14-1.313.946-1.12 1.206-.214 1.792-1.488.988-.094.306-1.536.732.31.894-2.87-.7.027.827-1.885.29-2.388.69 2.282 1.18-.928-.18-1.92.71 1 1.666-1.56.124-1.347 1.26-.933 1.3-.463 4.688-.815-1.24-1.167 1.273-1.8 3.1-2.128 1.952-.148 1.217-1.256 1.904-.058 1.96-.77.428.568-2.897 1.37-.56 1.628.7.43 2.383-2.033 1.56-.112 3.805-1.308-1.065-1.026-.965.507-2.667-1.152-.75-1.562 1.24-1.337-1.264.265 2.315-1.362.146-1.253-2.99-.046-4.123 1.63-2.976 2.244-4.478 1.754-1.05 1.188-1.995.768 3.36-2.237 2.776-.972 2.144-1.39 2.544-2.314 2.846-1.066 2.007-1.687 6.535.062 2.993-.178 2.582-1.792 2.19-.196 2.242-1.24.567-2.192-1.722-.396-.04-1.164-2.112.463-2.487 1.2.64-.882 4.358-1.435-1.986-.515-.86-.847-1.464.57.996-1.33-1.925-1.18 1.466-1.218-2.125-5.642-1.585 1.875-3.826 1.833-1.963-1.165.924-2.818.833-.47-2.307-.597-1.76-2.265-1.74.55-3.108-.73-1.154.493-.017 1.38-1.424 1.053.383 1.48-3.085 2.307 1.334 1.245.02 1.21-1.188 2.11-3.34 1.85-2.255.67.572.843-.94 2.065.103 1.21-2.762 2.096-.79-.263-1.287-2.933 2.086-3.847-3.15-.226-3.29-1.416-.934-1.435-2.498-.71-2.624.542.827-.7.588-2.43-1.745.038.938-2.124 2.906-2.587 3.595-2.267 2.664-.464.207-.554-2.496-.86 3.42.507 1.367-1.075 2.23.097 2.428-1.58-2.43-.308-.073-1.017 2.163 1.015 2.878-1.368 2.745-.06 3.578-1.298.872-.754-.356-1.647 1.637-.247-.48-1.603-3.007-.317-.802 1.024-3.564 2.92-1.672-.64 1.53-1.655-.59-.677-2.84 1.583.577-1.004-1.862-1.32 1.526-.51.555-2.074zm79.904 1.41l-3.056 1.018 3.205-.53zm-34.518 1.202l-1.12.96 1.35.74 1.905-.384-.373-.713zm-52.106 1.122l-3.454.93 3.27.853 1.813-.597zm24.817 2.05l-1.384.082-1.5 1.59 2.747-.447zm-14.98 4.083l-2.55 1.983-.277.824-1.848.868 2.1-.15-.177.926 4.077-1.792.128.847 1.623.395 1.437-.6zm-112.538 3.32l.606 1.396 2.106-.582zM193.98 37.34l-2.837.804.664.534zM80.133 41.72l-2.178.338 1.95.45zm37.858 3.497l-1.12 1.857 1.565-.853zm-1.315.25l-1.607.69 1.594.61zm-23.92.525l-3.262.877-.45 1.207 3-1.365zm23.043.84l-1.025 2.242 1.515-2.037zm.727 1.928l-.85 1.277.465 1.663.832-.91zm2.633.72l-1.584.852.446.493 1.095-.914zM72.632 51.05l-2.58.847 2.554-.32zm41.31 1.6l-.95 1.617 1.272-.173 1.523-1.425zm.325 1.634l-1.244.19.31 1.202zm70.934.042l-1.087.37 1.636.58zm35.002 2.903l-2.608 1.635-3.18 3.852-1.448 1.324.242.587 5.852-.042-1.558 1.25 1.037-.028 2.067-1.765.282 2.318.99-.318.703-1.832-1.578.15 1.72-1.647-1.36.066 1.005-1.234-1.43-.525-1.226.584-1.125-.4 1.186-.896-1.734-.196 2.816-2.815zm-103.72 1.357l-.972.466 1.342 1.213.265 1.557 1.128.946 1.833.273-.01-1.474-.93-.528.133-1.45zm90.84 1.665l.438 1.023 1.745.59.703-.525zm3.53 5.404l-2.076 1.77.04.875 1.44-.14 1.154-.973zm-5.306.32l.247 1.11 1.457.465 1.116-.888-2.54-.005zm-15.71 10.558l-1.998.354-.988.702 1.797-.328zm-16.258 30.024l-.687 1.013 1.163-.14zm-7.178 3.706l-3.156.995-.947 1.655 1.9-.752 1.164-.96 1.464.03-.036.924 2.206.227.815.696 1.823.112.93 1.747 1.55.463-1.207 1.147 4.102-.084.135-.133.037-.002.053.142 1.39-.322-.706-1.05-1.514-.122-.393-.73-2.698-1.384-1.36-1.023-2.985-1.378zm13.992 6.132l1.11 2.384-.75.456-2.256-.433.76.754 2.576.04.446.373.506.818 1.326-1.554 3.027.104.862-.53-1.966-.823-.364-1.022-1.77-.563-1.254.424zm-8.053 2.67l-.83.478 1.785 1.034 1.622-.558-.952-.747zm17.83.026l-.263 1.046 2.115-.145.393-.686zm9 14.438l-1.27.245 1.06 1.07z"/>
  <path id="africa" class="continent border" d="M315.226 83.663l-1.927.73-1.904-.27-3.322.813-.707-.46-2.88.164-2.936.604-5.11 2.626-1.08-.353-.053-.1-2.24.335-1.488-1.307-.09-.145-.8.24-1.504 3.305-2.728 1.452-1.19 1.303-.996 2.21.24 2.403-1.523 2.14-1.496 1.25-2.403.775-1.118 2.306-1.298.808-.89 2.965-1.43 1.56-2.154 4.588-.102 1.23.247-.74 1.125 1.78-.565 1.54.5.78.197 2.476-.885 3.5-1.09 2.175.98 2.007-.334.983.02 1.38 1.927 1.128.858 1.44 2.336 2.248.473 1.38.223 1.638 1.07 1.47 1.702.887 1.786 1.398 1.846 1.942 2.88 1.493 2.81-1.275 3.083-.38 1.913.156-.45.077-.008.03 1.71.668 5.44-2.568.72-.213 1.798-.29 2.824.017.8.664 1.183 2.58.988.67 1.864-.616 1.606.115.52-.506.633 1.345 1.076.265.505 1.38-.195 1.667-.75 2.184.763.345-.813.7-.476 3.626 1.445 2.638 2.005 2.327 1.478 2.04.326 1.4.104.66.91 1.488.876 2.67-.63 1.45 1.223 2.924-.223 3.017-1.89 2.247-.428 2.464-.886 1.975-.018 2.736.108 1.676 2.065 3.786.355 1.246 1.567 2.75.056 3.544 1.15 5.956 1.825 2.354 1.126 3.34 1.294 2.48.057 1.85-.696.316.902 1.974 2.188 1.78 1.566-.843 1.237.056 1.41-.74 3.58.358 1.354-.738 2.285-.508 2.445-1.813 3.206-3.23 1.47-2.423 2.06-1.896 1.07-3.212-.49-1.688.626-.764 3.728-1.782.553-1.423.4-2.695-1.043-4.744 2.974-2.472 1.066-1.332 4.687-2.71 1.294-1.793.508-1.907-.432-1.56.052-5.952-1.086-.926-.718-3.15.367-2.734-1.11-1.556.73-2.548.59-.466 1.1-3.14 2.28-2.007.914-1.57 2.308-2.793 1.79-1.766 2.442-1.655 3.132-3.802 1.738-3.175 1.246-3.424 1.563-2.81.476-2.084.088-2.39-.832-.295-.84.754-2.17.64-2.595.144-1.484.903-1.16-.335-1.28.858-1.14-.077-1.78-1.942-.82-.414 1.008-.56-.483-1.322-2.477-2.32-.917-1.32-2.422-1.173-.87-1.59-1.228-3.57-1.794-1.328-.404-.846-.587-3.988-.453-1.35-2.036-1.764-.412-1.967-2.758-4.96-1-2.536-1.127-1.167-1.008-1.922.316-.67-.12-2.084-.832-.03-.352-.838-2.47.03-2.01 1.282-2.765-1.02-3.522-.54-.312-.588-3.038-.67-.057-.607-2.374-.536-1.608.7-.922 1.583.414.943-.558 1.33-1.08.46-2.772-1.544-2.117-.356-1.445-2.098-2.96-.97-1.58.136-1.357-.656-1.888-.982-.36-1.173 1.562-1.717-2.178-3.927zm66.23 93.033l-.626.458-.49 2.03-3.102 3.363-1.29.958-2.302.976-1.632 2.317.576 4.627-1.763 2.63-.58 1.74.702 2.296-.217 1.793.436 1.116 1.69 1.1 3.332-1.222 1.625-4.62 3.266-8.82.735-2.34-.228-1.898.924.802.477-.993-.642-4.538z"/>
  <path id="europe" fill="var(--colortest)" class="continent border" d="M323.687 10.827l-4.932.606 6.376.952 2.918-.89zm-6.347.64l-.205 1.286-2.13-1.202-3.932.334 3.57 2.44 3.664 1.682 1.765-2.642 2.535-.527zm7.44 2.262l-2.287 1.046 2.566.25zm49.225 1.71l-4.847 1.077-4.094.484-4.056 3.098 4.008.763.436-1.986 1.207.203 1.65-1.307 5.57-1.107zm-10.734 5.29l-2.306.284-.164 2.584 4.606 1.4 2.79-.276-2.25-.82-1.72-1.602.435-1.406zM378.7 23.8l-.06.04.137.193zm-46.27.35l-3.368.493-1.76.89-5.377 1.14-.583.944-2.74 1.368-1.09 1.705-1.306.713-.377 2.325-1.678.446-1.8 2.026-2.746 1.234-.07.528-2.55.697-.57 2.363 1.072 1.098-.65 1.122 1.445.406-1 .908 1.466 1.105 2.65-.238 2.527-1.723 1.33.444-.185 1.135 3.24 5.264 1.47-.316.338-1.103 1.615.108.876-2.437-.096-1.983 2.065-.927.685-1.118-2.756-2.074.172-2.087 1.994-2.094 1.818-.703.883-2.754 2.808-.472 1.605.557-1.996 2.632-2.453 1.753.804 3.76 2.677 1.245 5.842-1.084 1.072-.22.918 1.166-1.333.9-3.122-.318-2.87.787 1.522 2.342-.57 1.58-1.732-1.39-1.148.358-.504 2.607.5 1.46-.392-.045-.092-.016-1.635 1.47-1.884-.68-5.563 1.608-.004.107.118.32-2.584-1.383-1.382 1.014-2.93-1.615.01-1.206 1.904-1.696-.842-.2.17-2.088-1.02 1.135-2.216.972.905 2.93.586 1.793-.586.62-1.893-.215-.01.757-.67-.387-2.765.885-.304 1.136-1.462 1.41 1.156.336-.057.003-1.247-.014-1.175.522-1.344.395-.027 1.182-2.56 1.71-2.48-.81.8 1.945-1.912.278-.585-.664-2.465.696 1.202 1.107 2.827 1.535 1.29 1.46-.098 2.735-.96 2.586-3.9.005-4.27-.344-.964-.36-2.187 1.56.747 1.777.077 1.82-1.442 4.277 1.052.654-.4 2.51 2.472-.32 1.41.437.5 1.23 1.245.307h.03l1.432-1.07 3.59-.05.716-1.175 1.273-.677 1.673-1.897-.848-1.464 2.007-2.85 1.626-.437 1.772-1.288-.096-.868-.12-1.256 1.23-.793 2.908.908 2.233-1.26.106-.04.095-.09 1.787-1.173 2.102.757 1.637 3 3.08 2.19 1.027-.046 3.02 2.202L324.872 81l-.702 1.467.66.032 1.47-2.733-1.024-.53.71-1.552 2.303.756-.858-1-3.134-1.45-.06-.963-1.37.018-1.667-1.238-.804-1.733-1.955-1.337-.07-2.196 1.916-.29-.17.193.642 1.253.476-1.003 1.31 2.02 1.312 1.09 2.59 1.366.117.094 1.348.884 1.406 1.05.105 2.253 1.202 1.78 1.992 2.604 1.27-.2-1.25 1.076 1.333 2.084.39-.553 1.714 1.107-.91-2.083 1.776-1.406-1.908-.926.817-.74-1.338-1.64.304-.836 3.29-.94 1.588.5 1.228.254.978-.723 2.22-.023-1.693-1.81-.7-.905 1.12-2.386-.056-1.09 1.286-1.646-.195-.634 2.068-1.973 4.04 1.29-1.26.553 2.002 2.31 3.582-1.936-1.84.104-1.028-1.466 1.452-.896 3.256-.83 1.573.174-2.128.612L357 67.288l-.84.138-.096 1.347-1.666.195 3.92 1.96 1.776 1.41 2.546 1.392.158.782.135.007-.042.116 13.27 3.413.09-.085-2.588-2.753-2.166-2.19-.82-2.213-.913-.435.808-2.43 2.13-1.05 2.56-1.46.222.054.163-.45 4.305-37.52-2.986-.946-4.288-.473.948 1.463-2.517-.12-1.525.7L367.84 28l-.967.75-2.282-1.172-5.896 2.178.242.906-2.245.185-1.38-.703 1.847-.846-1.334-.966-3.286-.267 1.335.573.124 1.738 1.132.814.074 1.292-2.83-1.057-2.49 1.852 1.478 1.426-4.766-1.05-.592.425 2.53 1.47-.91.364-3.56-1.234-1.07-2.574-1.544-1.002 5.84 1.047 2.97-.52.8-.99-.808-1.105-6.93-2.368-2.902-.24-3.555-.758.07-.753zm25.71 2.855l.715.87 1.72-.735zm-78.13 4.41l-2.067.92-3.102-.258-1.526 1.417-.136-1.25-2.04-.66-2.054 1.515 3.308.143-2.903.876 2.16.23 1.212 1.464 2.996.804 5.572-1.69 1.442-1.274zm15.41 13.317l-2.208.04-1.16 1.37.18 2.785 1.304 1.348-.794.863 3.27 1.58-.572 1.34-1.367.267-.108 1.707-1.57.653 2.47.937-2.78 2.183 2.583-.057.23-.586 3.56-.536 1.853.175 1.555-.695-.55-1.254 1.118-1.192-2.046-1.08-2.72-4.463-2.12-.837 1.984-2.49-3.128-.822zm21.46 4.427l-1.83.713 1.524 1.83zm-25.415 1.62l-1.6.254-1.423-.162-.354 1.577-1.913-.094-.57 1.64 1.245.478-1.71 2.284 2.373.544 3.345-1.41.598-1.092-.306-2.032 1.062-1zM314.2 73.65l-1.088.22.177 1.87.67.352zm-.21 2.673l-1.507.632.545 1.927-.225 1.214.764.66 1.067-.49.31-2.583zm-9.194 2.39l-1.253.668 1.088.644zm31.25 2.006l1.597 1.737-.586-1.327zM324.1 81.91l-2.834.54-1.613-.388-.482.697 3.294 1.91.926.25-.052-1.568zm13.213 5.134l-.564.44 1.968.68 2.338-.202-.793-.558z"/>
</svg>